<svg width="49" height="41" viewBox="0 0 49 41" fill="none" xmlns="http://www.w3.org/2000/svg">
<path d="M0 20C0 8.95431 8.95431 0 20 0H29C40.0457 0 49 8.95431 49 20V21C49 32.0457 40.0457 41 29 41H20C8.9543 41 0 32.0457 0 21V20Z" fill="#3B5646"/>
<path d="M19.6429 27.0415L14.3953 33.6462" stroke="white" stroke-linecap="round" stroke-linejoin="round"/>
<path d="M25.8093 7.94766C20.5205 8.34584 16.493 13.415 16.8136 19.2701C16.9741 22.2026 18.1951 24.7762 20.0384 26.5645C21.8753 28.3468 24.3305 29.3493 26.9703 29.1505C32.2592 28.7523 36.2867 23.6831 35.9661 17.8281C35.6455 11.9731 31.0982 7.54949 25.8093 7.94766Z" stroke="white" stroke-linecap="round" stroke-linejoin="round"/>
</svg>
