<svg width="26" height="17" viewBox="0 0 26 17" fill="none" xmlns="http://www.w3.org/2000/svg">
<path fill-rule="evenodd" clip-rule="evenodd" d="M18.3044 16.0843C18.5116 16.0843 18.7103 16.0238 18.8568 15.9162C19.0033 15.8087 19.0856 15.6627 19.0856 15.5106V1.97886L24.0008 5.58984C24.1475 5.69757 24.3464 5.75809 24.5539 5.75809C24.7613 5.75809 24.9603 5.69757 25.107 5.58984C25.2537 5.48211 25.3361 5.336 25.3361 5.18365C25.3361 5.0313 25.2537 4.88519 25.107 4.77746L18.8575 0.187716C18.7849 0.134288 18.6987 0.0918983 18.6038 0.0629755C18.5089 0.0340528 18.4071 0.019165 18.3044 0.019165C18.2016 0.019165 18.0999 0.0340528 18.005 0.0629755C17.9101 0.0918983 17.8239 0.134288 17.7513 0.187716L11.5018 4.77746C11.3551 4.88519 11.2727 5.0313 11.2727 5.18365C11.2727 5.336 11.3551 5.48211 11.5018 5.58984C11.6485 5.69757 11.8474 5.75809 12.0549 5.75809C12.2623 5.75809 12.4613 5.69757 12.608 5.58984L17.5232 1.97886V15.5106C17.5232 15.6627 17.6055 15.8087 17.752 15.9162C17.8985 16.0238 18.0972 16.0843 18.3044 16.0843ZM7.36774 0.0201906C7.57493 0.0201906 7.77362 0.0806356 7.92013 0.188229C8.06663 0.295821 8.14893 0.441749 8.14893 0.593908V14.1256L13.0642 10.5146C13.2109 10.4069 13.4098 10.3464 13.6172 10.3464C13.8247 10.3464 14.0236 10.4069 14.1703 10.5146C14.317 10.6224 14.3994 10.7685 14.3994 10.9208C14.3994 11.0732 14.317 11.2193 14.1703 11.327L7.92082 15.9168C7.84826 15.9702 7.76205 16.0126 7.66715 16.0415C7.57224 16.0704 7.4705 16.0853 7.36774 16.0853C7.26499 16.0853 7.16324 16.0704 7.06834 16.0415C6.97343 16.0126 6.88723 15.9702 6.81466 15.9168L0.565153 11.327C0.418467 11.2193 0.33606 11.0732 0.33606 10.9208C0.33606 10.7685 0.418467 10.6224 0.565153 10.5146C0.71184 10.4069 0.910789 10.3464 1.11823 10.3464C1.32568 10.3464 1.52463 10.4069 1.67132 10.5146L6.58655 14.1256V0.593908C6.58655 0.441749 6.66886 0.295821 6.81536 0.188229C6.96186 0.0806356 7.16056 0.0201906 7.36774 0.0201906Z" fill="#3B5646"/>
</svg>
