<svg width="26" height="31" viewBox="0 0 26 31" fill="none" xmlns="http://www.w3.org/2000/svg">
<path d="M16.24 24H10.576V23.124L12.82 20.856C13.252 20.424 13.616 20.04 13.912 19.704C14.208 19.368 14.432 19.04 14.584 18.72C14.736 18.392 14.812 18.036 14.812 17.652C14.812 17.18 14.672 16.824 14.392 16.584C14.112 16.336 13.748 16.212 13.3 16.212C12.884 16.212 12.516 16.284 12.196 16.428C11.884 16.572 11.564 16.772 11.236 17.028L10.672 16.32C10.896 16.128 11.14 15.956 11.404 15.804C11.676 15.652 11.968 15.532 12.28 15.444C12.6 15.356 12.94 15.312 13.3 15.312C13.836 15.312 14.296 15.404 14.68 15.588C15.064 15.772 15.36 16.036 15.568 16.38C15.784 16.716 15.892 17.12 15.892 17.592C15.892 17.928 15.84 18.248 15.736 18.552C15.632 18.848 15.484 19.14 15.292 19.428C15.1 19.716 14.868 20.008 14.596 20.304C14.324 20.6 14.024 20.908 13.696 21.228L11.908 22.992V23.04H16.24V24Z" fill="#3B5646"/>
<path d="M23.0506 11.4421L24.9672 25.4776C25.2252 27.367 23.9277 29.0709 22.231 29.0709H3.76901C2.07229 29.0709 0.774784 27.367 1.03279 25.4776L2.94938 11.4421C3.15716 9.92055 4.31921 8.79736 5.68562 8.79736H20.3145C21.6808 8.79736 22.8429 9.92055 23.0506 11.4421Z" stroke="#3B5646" stroke-width="2" stroke-linecap="round" stroke-linejoin="round"/>
<path d="M15.7685 4.119C15.7685 2.39643 14.5291 1 13.0001 1C11.4711 1 10.2317 2.39643 10.2317 4.119" stroke="#3B5646" stroke-width="2" stroke-linecap="round" stroke-linejoin="round"/>
</svg>
