<svg width="220" height="70" viewBox="0 0 220 70" fill="none" xmlns="http://www.w3.org/2000/svg">
<path d="M121.36 35.0418C121.36 34.094 121.221 33.0625 120.942 31.9474H124.455V48.8411C124.455 49.2871 124.301 49.6495 123.995 49.9283C123.688 50.2071 123.312 50.3465 122.866 50.3465H95.3507C94.9047 50.3465 94.5423 50.2071 94.2635 49.9283C93.9848 49.6495 93.8454 49.2871 93.8454 48.8411V31.9474H97.2743C96.9955 33.0625 96.8561 34.094 96.8561 35.0418C96.8561 36.7145 97.1767 38.3035 97.8179 39.8088C98.4591 41.3142 99.3372 42.6105 100.452 43.6977C101.567 44.7849 102.878 45.6491 104.383 46.2903C105.888 46.9315 107.477 47.2521 109.15 47.2521C110.823 47.2521 112.412 46.9315 113.917 46.2903C115.422 45.6491 116.719 44.7849 117.806 43.6977C118.893 42.6105 119.757 41.3142 120.399 39.8088C121.04 38.3035 121.36 36.7145 121.36 35.0418ZM109.15 42.6523C108.091 42.6523 107.087 42.4572 106.139 42.0669C105.191 41.6766 104.369 41.133 103.672 40.4361C102.975 39.7391 102.432 38.9307 102.041 38.0108C101.651 37.0908 101.456 36.1012 101.456 35.0418C101.456 33.9825 101.651 32.9789 102.041 32.0311C102.432 31.0832 102.975 30.2609 103.672 29.5639C104.369 28.867 105.191 28.3234 106.139 27.9331C107.087 27.5428 108.091 27.3477 109.15 27.3477C110.209 27.3477 111.199 27.5428 112.119 27.9331C113.039 28.3234 113.847 28.867 114.544 29.5639C115.241 30.2609 115.785 31.0832 116.175 32.0311C116.565 32.9789 116.761 33.9825 116.761 35.0418C116.761 36.1012 116.565 37.0908 116.175 38.0108C115.785 38.9307 115.241 39.7391 114.544 40.4361C113.847 41.133 113.039 41.6766 112.119 42.0669C111.199 42.4572 110.209 42.6523 109.15 42.6523ZM122.866 19.7372C123.312 19.7372 123.688 19.8765 123.995 20.1553C124.301 20.4341 124.455 20.7965 124.455 21.2425V25.8423C124.455 26.2883 124.301 26.6507 123.995 26.9295C123.688 27.2083 123.312 27.3477 122.866 27.3477H118.266C117.82 27.3477 117.457 27.2083 117.179 26.9295C116.9 26.6507 116.761 26.2883 116.761 25.8423V21.2425C116.761 20.7965 116.9 20.4341 117.179 20.1553C117.457 19.8765 117.82 19.7372 118.266 19.7372H122.866ZM126.964 0C129.361 0 131.633 0.459976 133.78 1.37993C135.926 2.29988 137.794 3.55436 139.383 5.14337C140.972 6.73238 142.226 8.58622 143.146 10.7049C144.066 12.8236 144.526 15.0816 144.526 17.4791V52.4373C144.526 54.8347 144.066 57.1067 143.146 59.2533C142.226 61.3998 140.972 63.2676 139.383 64.8566C137.794 66.4456 135.926 67.7001 133.78 68.6201C131.633 69.54 129.361 70 126.964 70H92.0055C89.608 70 87.3499 69.54 85.2313 68.6201C83.1126 67.7001 81.2587 66.4456 79.6697 64.8566C78.0807 63.2676 76.8262 61.3998 75.9063 59.2533C74.9863 57.1067 74.5264 54.8347 74.5264 52.4373V17.4791C74.5264 15.0816 74.9863 12.8236 75.9063 10.7049C76.8262 8.58622 78.0807 6.73238 79.6697 5.14337C81.2587 3.55436 83.1126 2.29988 85.2313 1.37993C87.3499 0.459976 89.608 0 92.0055 0H126.964ZM129.054 19.7372C129.054 18.4548 128.608 17.3676 127.716 16.4755C126.824 15.5834 125.737 15.1374 124.455 15.1374H93.8454C92.563 15.1374 91.4758 15.5834 90.5837 16.4755C89.6916 17.3676 89.2456 18.4548 89.2456 19.7372V50.3465C89.2456 51.6288 89.6916 52.7161 90.5837 53.6081C91.4758 54.5002 92.563 54.9462 93.8454 54.9462H124.455C125.737 54.9462 126.824 54.5002 127.716 53.6081C128.608 52.7161 129.054 51.6288 129.054 50.3465V19.7372Z" fill="#3B5646"/>
<path d="M52.5209 0C54.9184 0 57.1764 0.459976 59.2951 1.37993C61.4138 2.29988 63.2676 3.55436 64.8566 5.14337C66.4456 6.73238 67.7001 8.58622 68.6201 10.7049C69.54 12.8236 70 15.0816 70 17.4791V52.4373C70 54.8347 69.54 57.1067 68.6201 59.2533C67.7001 61.3998 66.4456 63.2676 64.8566 64.8566C63.2676 66.4456 61.4138 67.7001 59.2951 68.6201C57.1764 69.54 54.9184 70 52.5209 70H17.4791C15.0816 70 12.8236 69.54 10.7049 68.6201C8.58622 67.7001 6.73238 66.4456 5.14337 64.8566C3.55436 63.2676 2.29988 61.3998 1.37993 59.2533C0.459976 57.1067 0 54.8347 0 52.4373V17.4791C0 15.0816 0.459976 12.8236 1.37993 10.7049C2.29988 8.58622 3.55436 6.73238 5.14337 5.14337C6.73238 3.55436 8.58622 2.29988 10.7049 1.37993C12.8236 0.459976 15.0816 0 17.4791 0H52.5209ZM48.0884 15.3047H40.7288C39.2792 15.3047 37.9411 15.5556 36.7145 16.0573C35.4879 16.5591 34.4285 17.2143 33.5364 18.0227C32.6444 18.8311 31.9335 19.765 31.4038 20.8244C30.8742 21.8837 30.6093 22.9431 30.6093 24.0024V28.4349H24.086V37.1326H30.6093V54.6953H39.3907V37.1326H45.914V28.4349H39.3907V26.2605C39.3907 25.5356 39.6555 24.9781 40.1852 24.5878C40.7149 24.1975 41.1748 24.0024 41.5651 24.0024H48.0884V15.3047Z" fill="#3B5646"/>
<path d="M201.574 0C203.971 0 206.229 0.459976 208.348 1.37993C210.467 2.29988 212.32 3.55436 213.909 5.14337C215.498 6.73238 216.753 8.58622 217.673 10.7049C218.593 12.8236 219.053 15.0816 219.053 17.4791V52.4373C219.053 54.8347 218.593 57.1067 217.673 59.2533C216.753 61.3998 215.498 63.2676 213.909 64.8566C212.32 66.4456 210.467 67.7001 208.348 68.6201C206.229 69.54 203.971 70 201.574 70H166.532C164.134 70 161.876 69.54 159.758 68.6201C157.639 67.7001 155.785 66.4456 154.196 64.8566C152.607 63.2676 151.353 61.3998 150.433 59.2533C149.513 57.1067 149.053 54.8347 149.053 52.4373V17.4791C149.053 15.0816 149.513 12.8236 150.433 10.7049C151.353 8.58622 152.607 6.73238 154.196 5.14337C155.785 3.55436 157.639 2.29988 159.758 1.37993C161.876 0.459976 164.134 0 166.532 0H201.574ZM178.742 31.7802C178.742 33.0625 179.16 34.0661 179.997 34.7909C180.777 35.5157 181.892 35.8781 183.342 35.8781C184.847 35.8781 185.99 35.5157 186.771 34.7909C187.607 34.1219 188.025 33.1183 188.025 31.7802V24.086C188.025 23.0267 187.607 22.1067 186.771 21.3262C185.99 20.6014 184.903 20.2389 183.509 20.2389C182.06 20.2389 180.917 20.5735 180.08 21.2425C179.188 21.9116 178.742 22.8315 178.742 24.0024V31.7802ZM174.226 35.8781H164.357V38.5544H167.703V54.2772H170.881V38.5544H174.226V35.8781ZM174.31 27.1804L178.491 15.3047H174.811L172.637 23.417H172.386L170.044 15.3047H166.448L170.713 27.5149V35.5436H174.31V27.1804ZM183.593 40.7288H180.749V51.0155C180.638 51.1828 180.498 51.3222 180.331 51.4337L179.829 51.7682C179.495 51.9355 179.244 52.0191 179.077 52.0191C178.798 52.0191 178.603 51.9634 178.491 51.8519C178.38 51.7403 178.324 51.4894 178.324 51.0992V40.7288H175.48V52.1027C175.48 52.8833 175.648 53.4687 175.982 53.859C176.317 54.3051 176.791 54.5281 177.404 54.5281C177.906 54.5281 178.463 54.3608 179.077 54.0263C179.578 53.8033 180.136 53.3851 180.749 52.7718V54.2772H183.593V40.7288ZM193.879 43.9904C193.879 42.8754 193.629 42.0112 193.127 41.3979C192.737 40.8403 192.067 40.5615 191.12 40.5615C190.618 40.5615 190.172 40.673 189.782 40.8961C189.335 41.0633 188.945 41.37 188.611 41.816V35.8781H185.684V54.2772H188.611V53.2736C188.778 53.4966 188.959 53.6778 189.154 53.8172C189.349 53.9566 189.559 54.082 189.782 54.1936C190.172 54.3608 190.674 54.4444 191.287 54.4444C192.123 54.4444 192.764 54.1936 193.21 53.6918C193.656 53.1342 193.879 52.4094 193.879 51.5173V43.9904ZM192.876 35.7109C193.545 35.7109 194.158 35.5715 194.716 35.2927C195.273 35.0139 195.887 34.54 196.556 33.871V35.5436H199.734V20.5735H196.556V31.9474C196.333 32.2262 195.998 32.505 195.552 32.7838C195.218 32.951 194.939 33.0346 194.716 33.0346C194.326 33.0346 194.103 32.951 194.047 32.7838C193.879 32.6165 193.796 32.3656 193.796 32.0311V20.5735H190.618V33.1183C190.618 34.0104 190.813 34.6515 191.203 35.0418C191.482 35.4879 192.04 35.7109 192.876 35.7109ZM203.748 44.4086C203.748 43.0705 203.386 42.0669 202.661 41.3979C201.992 40.7288 200.988 40.3943 199.65 40.3943C198.368 40.3943 197.336 40.7567 196.556 41.4815C195.775 42.262 195.385 43.2378 195.385 44.4086V50.4301C195.385 51.7682 195.747 52.7997 196.472 53.5245C197.253 54.3051 198.256 54.6953 199.483 54.6953C200.877 54.6953 201.936 54.3329 202.661 53.6081C203.386 52.9391 203.748 51.8797 203.748 50.4301V49.7611H200.821V50.3465C200.821 51.1828 200.737 51.7125 200.57 51.9355C200.347 52.1585 200.013 52.27 199.566 52.27C199.009 52.27 198.674 52.1306 198.563 51.8519C198.396 51.6288 198.312 51.127 198.312 50.3465V47.8375H203.748V44.4086ZM199.566 42.736C200.013 42.736 200.319 42.8754 200.486 43.1541C200.709 43.3771 200.821 43.7674 200.821 44.325V45.7467H198.312V44.325C198.312 43.8232 198.396 43.4329 198.563 43.1541C198.842 42.8754 199.176 42.736 199.566 42.736ZM189.782 42.736C190.172 42.736 190.451 42.8475 190.618 43.0705C190.841 43.2935 190.952 43.628 190.952 44.0741V51.0992C190.952 51.5452 190.869 51.8519 190.701 52.0191C190.534 52.2421 190.283 52.3536 189.949 52.3536C189.726 52.3536 189.503 52.2979 189.28 52.1864C189.001 52.0749 188.778 51.9076 188.611 51.6846V43.2378C188.834 43.0147 189.029 42.8754 189.196 42.8196C189.308 42.7638 189.503 42.736 189.782 42.736ZM183.342 33.2855C182.896 33.2855 182.589 33.174 182.422 32.951C182.143 32.7838 182.004 32.4771 182.004 32.0311V23.9188C182.004 23.64 182.143 23.3612 182.422 23.0824C182.645 22.9152 182.952 22.8315 183.342 22.8315C183.732 22.8315 184.095 22.9152 184.429 23.0824C184.652 23.3055 184.764 23.5842 184.764 23.9188V32.0311C184.764 32.4771 184.652 32.7838 184.429 32.951C184.206 33.174 183.844 33.2855 183.342 33.2855Z" fill="#3B5646"/>
</svg>
